<svg xmlns="http://www.w3.org/2000/svg" viewBox="0 0 32 32"><g id="Location"><path d="M25.93,11.83A10,10,0,0,0,6,13a9.9,9.9,0,0,0,1.7,5.57,8.56,8.56,0,0,0,.57.77l6.13,8.19a2,2,0,0,0,3.2,0l6.1-8.15a9.06,9.06,0,0,0,.56-.75h0a.21.21,0,0,0,0-.06A10,10,0,0,0,25.93,11.83Zm-3.28,5.61v0c-.15.22-.31.44-.51.68L16,26.33,9.84,18.11c-.17-.21-.33-.43-.49-.67A8,8,0,0,1,16,5c.3,0,.61,0,.92,0a8,8,0,0,1,7,7A7.91,7.91,0,0,1,22.65,17.44Z" id="id_101" style="fill: rgb(137, 137, 137);"></path><path d="M16,8a5,5,0,1,0,5,5A5,5,0,0,0,16,8Zm0,8a3,3,0,1,1,3-3A3,3,0,0,1,16,16Z" id="id_102" style="fill: rgb(137, 137, 137);"></path></g></svg>